# 3ds Max Wavefront OBJ Exporter v0.97b - (c)2007 guruware
# File Created: 20.11.2020 18:55:07

mtllib tree2.mtl

#
# object Box001
#

v  -1.5748 1.5748 1.4592
v  1.5748 1.5748 -1.6904
v  1.5748 1.5748 1.4592
v  -1.5748 1.5748 -1.6904
v  -1.5748 17.3228 1.4592
v  1.5748 17.3228 -1.6904
v  -1.5748 17.3228 -1.6904
v  1.5748 17.3228 1.4592
# 8 vertices

vn 0.0000 -1.0000 -0.0000
vn 0.0000 1.0000 -0.0000
vn 0.0000 0.0000 1.0000
vn 1.0000 0.0000 -0.0000
vn 0.0000 0.0000 -1.0000
vn -1.0000 0.0000 -0.0000
# 6 vertex normals

vt 1.0000 0.0000 0.0000
vt 0.0000 1.0000 0.0000
vt 0.0000 0.0000 0.0000
vt 1.0000 1.0000 0.0000
# 4 texture coords

o Box001
g Box001
usemtl 09___Default
s off
f 1/1/1 2/2/1 3/3/1 
f 1/1/1 4/4/1 2/2/1 
f 5/3/2 6/4/2 7/2/2 
f 5/3/2 8/1/2 6/4/2 
f 1/3/3 8/4/3 5/2/3 
f 1/3/3 3/1/3 8/4/3 
f 3/3/4 6/4/4 8/2/4 
f 3/3/4 2/1/4 6/4/4 
f 2/3/5 7/4/5 6/2/5 
f 2/3/5 4/1/5 7/4/5 
f 4/3/6 5/4/6 7/2/6 
f 4/3/6 1/1/6 5/4/6 
# 0 polygons - 12 triangles

#
# object Pyramid001
#

v  0.0000 34.6457 -0.0000
v  -11.8110 15.7480 11.8110
v  11.8110 15.7480 11.8110
v  11.8110 15.7480 -11.8110
v  -11.8110 15.7480 -11.8110
v  0.0000 15.7480 -0.0000
# 6 vertices

vn 0.0000 0.5300 0.8480
vn 0.8480 0.5300 -0.0000
vn 0.0000 0.5300 -0.8480
vn -0.8480 0.5300 -0.0000
vn 0.0000 -1.0000 -0.0000
# 5 vertex normals

vt 0.5000 1.0000 0.0000
vt 0.0000 0.0000 0.0000
vt 1.0000 0.0000 0.0000
vt 0.0000 1.0000 0.0000
vt 0.5000 0.5000 0.0000
vt 1.0000 1.0000 0.0000
# 6 texture coords

o Pyramid001
g Pyramid001
usemtl 08___Default
s off
f 9/5/7 10/6/7 11/7/7 
f 9/5/8 11/6/8 12/7/8 
f 9/5/9 12/6/9 13/7/9 
f 9/5/10 13/6/10 10/7/10 
f 10/8/11 14/9/11 11/10/11 
f 13/6/11 14/9/11 10/8/11 
f 11/10/11 14/9/11 12/7/11 
f 12/7/11 14/9/11 13/6/11 
# 0 polygons - 8 triangles

#
# object Pyramid002
#

v  0.0000 37.7953 -0.0000
v  -9.4488 25.1968 9.4488
v  9.4488 25.1968 9.4488
v  9.4488 25.1968 -9.4488
v  -9.4488 25.1968 -9.4488
v  0.0000 25.1968 -0.0000
# 6 vertices

vn 0.0000 0.6000 0.8000
vn 0.8000 0.6000 -0.0000
vn 0.0000 0.6000 -0.8000
vn -0.8000 0.6000 -0.0000
vn 0.0000 -1.0000 -0.0000
# 5 vertex normals

vt 0.5000 1.0000 0.0000
vt 0.0000 0.0000 0.0000
vt 1.0000 0.0000 0.0000
vt 0.0000 1.0000 0.0000
vt 0.5000 0.5000 0.0000
vt 1.0000 1.0000 0.0000
# 6 texture coords

o Pyramid002
g Pyramid002
usemtl 07___Default
s off
f 15/11/12 16/12/12 17/13/12 
f 15/11/13 17/12/13 18/13/13 
f 15/11/14 18/12/14 19/13/14 
f 15/11/15 19/12/15 16/13/15 
f 16/14/16 20/15/16 17/16/16 
f 19/12/16 20/15/16 16/14/16 
f 17/16/16 20/15/16 18/13/16 
f 18/13/16 20/15/16 19/12/16 
# 0 polygons - 8 triangles

#
# object Pyramid003
#

v  0.0000 45.6693 -0.0000
v  -6.2992 33.0709 6.2992
v  6.2992 33.0709 6.2992
v  6.2992 33.0709 -6.2992
v  -6.2992 33.0709 -6.2992
v  0.0000 33.0709 -0.0000
# 6 vertices

vn 0.0000 0.4472 0.8944
vn 0.8944 0.4472 -0.0000
vn 0.0000 0.4472 -0.8944
vn -0.8944 0.4472 -0.0000
vn 0.0000 -1.0000 -0.0000
# 5 vertex normals

vt 0.5000 1.0000 0.0000
vt 0.0000 0.0000 0.0000
vt 1.0000 0.0000 0.0000
vt 0.0000 1.0000 0.0000
vt 0.5000 0.5000 0.0000
vt 1.0000 1.0000 0.0000
# 6 texture coords

o Pyramid003
g Pyramid003
usemtl 02___Default
s off
f 21/17/17 22/18/17 23/19/17 
f 21/17/18 23/18/18 24/19/18 
f 21/17/19 24/18/19 25/19/19 
f 21/17/20 25/18/20 22/19/20 
f 22/20/21 26/21/21 23/22/21 
f 25/18/21 26/21/21 22/20/21 
f 23/22/21 26/21/21 24/19/21 
f 24/19/21 26/21/21 25/18/21 
# 0 polygons - 8 triangles

