# 3ds Max Wavefront OBJ Exporter v0.97b - (c)2007 guruware
# File Created: 20.11.2020 19:13:19

mtllib car.mtl

#
# object car
#

v  -2.5082 3.7632 3.3850
v  -2.5969 3.4698 3.0890
v  -2.5082 3.4789 3.3850
v  -2.5082 3.7632 -3.3850
v  -2.5082 3.4789 -3.3850
v  -2.5969 3.4698 -3.0890
v  7.9894 1.9610 2.6929
v  7.9894 1.1128 2.6929
v  8.5740 1.3362 1.6194
v  8.6075 2.2799 1.6194
v  8.3198 3.3865 1.6194
v  7.9894 3.4249 2.6929
v  8.0705 3.8167 1.6194
v  7.7285 3.8597 2.3609
v  -8.4876 1.5411 -1.2919
v  -8.4614 0.8463 -1.2919
v  -8.4614 0.8463 1.2919
v  -8.4876 1.5411 1.2919
v  -8.1809 2.5925 1.2919
v  -8.1809 2.5925 -1.2919
v  -7.6183 0.7637 2.7410
v  -7.6183 1.5365 2.7410
v  -7.3063 2.9081 2.5798
v  3.6706 0.7637 3.2388
v  3.9760 0.2940 3.2388
v  4.4763 0.0000 3.2388
v  6.0118 0.7637 3.2388
v  5.6549 0.2851 3.2388
v  5.1368 0.0000 3.2388
v  3.6706 1.5667 3.2388
v  -3.8617 0.7637 3.2388
v  6.0118 1.5959 3.2388
v  3.6706 3.6843 3.0901
v  -3.8664 1.6466 3.2388
v  6.0118 3.7427 3.0901
v  6.0118 4.2557 2.6824
v  3.1558 5.1665 2.3821
v  -1.1234 5.1473 2.3821
v  -2.5445 3.5741 3.0577
v  -2.6154 4.2632 2.7912
v  -2.4792 3.4733 3.0926
v  -3.8617 3.5298 3.0901
v  -6.2367 0.7637 3.2388
v  -5.4223 0.0000 3.2388
v  -5.8849 0.2885 3.2388
v  -4.2226 0.3006 3.2388
v  -4.7192 0.0000 3.2388
v  6.0118 0.7637 -3.2388
v  5.6549 0.2851 -3.2388
v  5.1368 0.0000 -3.2388
v  4.4763 0.0000 -3.2388
v  3.6706 0.7637 -3.2388
v  3.9760 0.2940 -3.2388
v  -3.8617 0.7637 -3.2388
v  8.5740 1.3362 -1.6194
v  7.9894 1.1128 -2.6929
v  -7.6183 3.0591 1.3705
v  -3.8617 3.6265 1.6194
v  -7.6183 3.0591 -1.3705
v  -3.8617 3.6265 -1.6194
v  -1.1234 5.2719 1.6194
v  3.1558 5.3741 1.6194
v  -3.8617 3.5298 -3.0901
v  -7.3063 2.9081 -2.5798
v  -2.6154 4.2632 -2.7912
v  -1.1234 5.1473 -2.3821
v  -1.1234 5.2719 -1.6194
v  3.1558 5.3741 -1.6194
v  3.1558 5.1665 -2.3821
v  6.0118 4.2557 -2.6824
v  6.0118 4.3437 -1.6194
v  7.7285 3.8597 -2.3609
v  8.0705 3.8167 -1.6194
v  6.0118 4.3437 1.6194
v  -2.3592 3.3553 3.2031
v  -2.0346 3.4286 3.6848
v  -2.2522 3.5000 3.6812
v  -2.2523 3.7651 3.6811
v  -2.0353 3.8409 3.6835
v  -2.3592 3.8844 3.2031
v  8.3198 3.3865 -1.6194
v  8.6075 2.2799 -1.6194
v  -6.2367 0.7637 -3.2388
v  -5.8849 0.2885 -3.2388
v  -5.4223 0.0000 -3.2388
v  -4.2226 0.3006 -3.2388
v  -4.7192 0.0000 -3.2388
v  -7.6183 0.7637 -2.7410
v  7.9894 1.9610 -2.6929
v  7.9894 3.4249 -2.6929
v  -7.6183 1.5365 -2.7410
v  3.6706 1.5667 -3.2388
v  6.0118 1.5959 -3.2388
v  3.6706 3.6843 -3.0901
v  -3.8664 1.6466 -3.2388
v  6.0118 3.7427 -3.0901
v  -2.5445 3.5741 -3.0577
v  -2.4792 3.4733 -3.0926
v  -2.2522 3.5000 -3.6812
v  -2.0346 3.4286 -3.6848
v  -2.3592 3.3553 -3.2031
v  -2.3592 3.8844 -3.2031
v  -2.0353 3.8409 -3.6835
v  -2.2523 3.7651 -3.6811
# 104 vertices

vn -0.9579 0.0000 0.2870
vn -0.9579 0.0000 -0.2870
vn 0.8878 0.0387 0.4586
vn 0.8782 0.0000 0.4783
vn 0.9635 -0.0279 0.2664
vn 0.9580 0.1126 0.2638
vn 0.9262 0.3363 0.1703
vn 0.9150 0.2706 0.2993
vn 0.8403 0.5240 0.1391
vn 0.7075 0.6450 0.2888
vn -0.9924 0.1228 -0.0000
vn -0.9993 -0.0376 -0.0000
vn -0.9600 0.2800 -0.0000
vn -0.8555 0.1051 0.5070
vn -0.8647 -0.0326 0.5012
vn -0.8594 -0.0082 0.5112
vn -0.8502 0.1241 0.5117
vn -0.8303 0.2447 0.5007
vn -0.8287 0.2475 0.5021
vn 0.0000 0.0000 1.0000
vn 0.0964 0.0000 0.9953
vn -0.0000 0.0348 0.9994
vn -0.0444 0.0319 0.9985
vn 0.1257 0.0267 0.9917
vn 0.2661 0.0000 0.9639
vn 0.0103 0.2668 0.9637
vn -0.0665 0.0397 0.9970
vn 0.2563 0.3083 0.9161
vn 0.1201 0.3714 0.9207
vn 0.2535 0.6642 0.7033
vn 0.1281 0.5869 0.7994
vn 0.0147 0.4351 0.9003
vn -0.0046 0.4026 0.9154
vn -0.0633 0.3541 0.9331
vn 0.0283 0.3597 0.9326
vn -0.0110 0.1823 0.9832
vn -0.0204 0.1950 0.9806
vn -0.0518 0.1333 0.9897
vn -0.2079 0.1221 0.9705
vn -0.1719 0.1534 0.9731
vn -0.0432 0.3640 0.9304
vn -0.3390 0.0000 0.9408
vn 0.8016 -0.5979 -0.0000
vn 0.6568 -0.7541 -0.0000
vn 0.2489 -0.9685 -0.0000
vn 0.0000 -1.0000 -0.0000
vn -0.6909 -0.7229 -0.0000
vn -0.8384 -0.5451 -0.0000
vn -0.5066 -0.8622 -0.0000
vn 0.3569 -0.9341 -0.0000
vn 0.2154 -0.9765 -0.0000
vn 0.1738 -0.9848 -0.0000
vn -0.1662 0.9841 0.0624
vn -0.1996 0.9647 0.1719
vn -0.3283 0.9417 0.0733
vn -0.3366 0.9410 0.0351
vn -0.4968 0.8659 0.0579
vn -0.1662 0.9841 -0.0624
vn -0.2958 0.9437 0.1482
vn -0.3366 0.9410 -0.0351
vn -0.2746 0.9585 0.0769
vn 0.1501 0.9817 0.1173
vn 0.1413 0.9552 0.2600
vn 0.2839 0.9542 0.0939
vn -0.3283 0.9417 -0.0733
vn -0.1996 0.9647 -0.1719
vn -0.4968 0.8659 -0.0579
vn -0.2958 0.9437 -0.1482
vn -0.2746 0.9585 -0.0769
vn 0.1501 0.9817 -0.1173
vn 0.1413 0.9552 -0.2600
vn 0.2839 0.9542 -0.0939
vn 0.2925 0.9555 -0.0381
vn 0.2451 0.9674 -0.0638
vn 0.2479 0.9685 -0.0244
vn 0.2925 0.9555 0.0381
vn 0.2479 0.9685 0.0244
vn 0.2451 0.9674 0.0638
vn -0.6432 0.7605 0.0888
vn -0.6381 0.7264 0.2553
vn -0.6436 0.7521 0.1416
vn -0.6432 0.7605 -0.0888
vn -0.6436 0.7521 -0.1416
vn -0.6381 0.7264 -0.2553
vn -0.3759 -0.9148 0.1479
vn -0.2983 -0.8930 0.3370
vn -0.3034 -0.8910 0.3376
vn -0.3871 -0.8786 0.2796
vn -0.3335 -0.9157 -0.2243
vn 0.0423 -0.6597 -0.7504
vn -0.3381 0.8909 0.3034
vn -0.3203 0.9078 0.2709
vn -0.3302 0.8986 0.2889
vn -0.3421 0.8868 0.3109
vn 0.8292 -0.0001 -0.5589
vn 0.8293 -0.0002 -0.5589
vn 0.7743 -0.0000 -0.6328
vn 0.7748 0.0084 -0.6322
vn 0.6331 0.0232 -0.7737
vn 0.5461 0.0651 -0.8352
vn -0.7566 -0.0002 0.6539
vn -0.7566 -0.0003 0.6538
vn -0.7566 -0.0001 0.6539
vn -0.7565 0.0000 0.6540
vn -0.8712 0.4607 -0.1695
vn -0.9011 0.4112 -0.1376
vn -0.8019 0.5515 -0.2297
vn -0.7758 0.5798 -0.2490
vn 0.8403 0.5240 -0.1391
vn 0.9262 0.3363 -0.1703
vn 0.9580 0.1126 -0.2638
vn 0.9635 -0.0279 -0.2664
vn -0.0132 0.0015 0.9999
vn -0.0112 0.0002 0.9999
vn -0.0142 0.0022 0.9999
vn -0.0155 0.0030 0.9999
vn -0.6784 -0.7347 -0.0000
vn -0.8037 -0.5951 -0.0000
vn -0.5293 -0.8484 -0.0000
vn 0.7888 -0.6146 -0.0000
vn 0.6643 -0.7475 -0.0000
vn 0.5178 -0.8555 -0.0000
vn -0.0211 -0.9998 -0.0000
vn -0.0975 -0.9952 -0.0000
vn 0.8782 0.0000 -0.4783
vn 0.8878 0.0387 -0.4586
vn 0.9150 0.2706 -0.2993
vn 0.7075 0.6450 -0.2888
vn -0.8594 -0.0082 -0.5112
vn -0.8647 -0.0326 -0.5012
vn -0.8555 0.1051 -0.5070
vn -0.8502 0.1241 -0.5117
vn -0.8303 0.2447 -0.5007
vn -0.8287 0.2475 -0.5021
vn 0.0000 0.0000 -1.0000
vn 0.0964 0.0000 -0.9953
vn -0.0000 0.0348 -0.9994
vn -0.0444 0.0319 -0.9985
vn 0.1257 0.0267 -0.9917
vn 0.2661 0.0000 -0.9639
vn 0.0103 0.2668 -0.9637
vn -0.0665 0.0397 -0.9970
vn 0.2563 0.3083 -0.9161
vn 0.1201 0.3714 -0.9207
vn 0.2535 0.6642 -0.7033
vn 0.1281 0.5869 -0.7994
vn 0.0147 0.4351 -0.9003
vn -0.0046 0.4026 -0.9154
vn -0.0633 0.3541 -0.9331
vn 0.0283 0.3597 -0.9326
vn -0.0110 0.1823 -0.9832
vn -0.0204 0.1950 -0.9806
vn -0.0518 0.1333 -0.9897
vn -0.2079 0.1221 -0.9705
vn -0.1719 0.1534 -0.9731
vn -0.0432 0.3640 -0.9304
vn -0.3390 0.0000 -0.9408
vn -0.3034 -0.8910 -0.3376
vn -0.2983 -0.8930 -0.3370
vn -0.3759 -0.9148 -0.1479
vn -0.3871 -0.8786 -0.2796
vn -0.3335 -0.9157 0.2243
vn 0.0423 -0.6597 0.7504
vn -0.3381 0.8909 -0.3034
vn -0.3421 0.8868 -0.3109
vn -0.3302 0.8986 -0.2889
vn -0.3203 0.9078 -0.2709
vn 0.7743 -0.0000 0.6328
vn 0.8293 -0.0002 0.5589
vn 0.8292 -0.0001 0.5589
vn 0.7748 0.0084 0.6322
vn 0.6331 0.0232 0.7737
vn 0.5461 0.0651 0.8352
vn -0.7566 -0.0002 -0.6539
vn -0.7565 0.0000 -0.6540
vn -0.7566 -0.0001 -0.6539
vn -0.7566 -0.0003 -0.6538
vn -0.8712 0.4607 0.1695
vn -0.7758 0.5798 0.2490
vn -0.8019 0.5515 0.2297
vn -0.9011 0.4112 0.1376
vn -0.0132 0.0015 -0.9999
vn -0.0155 0.0030 -0.9999
vn -0.0142 0.0022 -0.9999
vn -0.0112 0.0002 -0.9999
# 185 vertex normals

vt 0.2213 0.0575 0.0000
vt 0.2030 0.0437 0.0000
vt 0.2196 0.0432 0.0000
vt 0.0703 0.0573 0.0000
vt 0.0714 0.0429 0.0000
vt 0.0879 0.0427 0.0000
vt 0.8173 0.3245 0.0000
vt 0.8194 0.2899 0.0000
vt 0.8692 0.3036 0.0000
vt 0.8667 0.3428 0.0000
vt 0.8558 0.3904 0.0000
vt 0.8126 0.3830 0.0000
vt 0.8471 0.4108 0.0000
vt 0.8108 0.4061 0.0000
vt 0.0564 0.6322 0.0000
vt 0.0254 0.6322 0.0000
vt 0.0254 0.5172 0.0000
vt 0.0564 0.5172 0.0000
vt 0.1051 0.5167 0.0000
vt 0.1051 0.6326 0.0000
vt 0.1050 0.3153 0.0000
vt 0.1017 0.2865 0.0000
vt 0.1706 0.2739 0.0000
vt 0.1729 0.3049 0.0000
vt 0.1185 0.3586 0.0000
vt 0.1842 0.3615 0.0000
vt 0.6378 0.2709 0.0000
vt 0.6507 0.2517 0.0000
vt 0.6714 0.2398 0.0000
vt 0.7345 0.2717 0.0000
vt 0.7198 0.2519 0.0000
vt 0.6986 0.2400 0.0000
vt 0.6375 0.3040 0.0000
vt 0.3277 0.2706 0.0000
vt 0.7336 0.3057 0.0000
vt 0.6372 0.3914 0.0000
vt 0.3277 0.3067 0.0000
vt 0.7323 0.3941 0.0000
vt 0.7346 0.4208 0.0000
vt 0.6158 0.4589 0.0000
vt 0.4399 0.4572 0.0000
vt 0.3819 0.3866 0.0000
vt 0.3789 0.4169 0.0000
vt 0.3846 0.3822 0.0000
vt 0.3798 0.3821 0.0000
vt 0.3280 0.3845 0.0000
vt 0.2303 0.2703 0.0000
vt 0.2638 0.2390 0.0000
vt 0.2447 0.2508 0.0000
vt 0.3131 0.2515 0.0000
vt 0.2927 0.2391 0.0000
vt 0.7595 0.7232 0.0000
vt 0.7590 0.9912 0.0000
vt 0.7343 0.9912 0.0000
vt 0.7348 0.7231 0.0000
vt 0.7104 0.7231 0.0000
vt 0.7099 0.9912 0.0000
vt 0.6826 0.9911 0.0000
vt 0.6831 0.7230 0.0000
vt 0.6587 0.9911 0.0000
vt 0.6355 0.9910 0.0000
vt 0.6360 0.7230 0.0000
vt 0.6592 0.7230 0.0000
vt 0.3239 0.9904 0.0000
vt 0.3244 0.7224 0.0000
vt 0.8684 0.7904 0.0000
vt 0.8681 0.9244 0.0000
vt 0.8421 0.9688 0.0000
vt 0.8426 0.7459 0.0000
vt 0.1374 0.5141 0.0000
vt 0.1488 0.4597 0.0000
vt 0.3049 0.4370 0.0000
vt 0.3063 0.5026 0.0000
vt 0.3689 0.4502 0.0000
vt 0.1374 0.6353 0.0000
vt 0.4469 0.4683 0.0000
vt 0.3063 0.6468 0.0000
vt 0.4482 0.5026 0.0000
vt 0.6378 0.5028 0.0000
vt 0.6391 0.4679 0.0000
vt 0.7734 0.4550 0.0000
vt 0.3049 0.7124 0.0000
vt 0.1488 0.6897 0.0000
vt 0.3689 0.6991 0.0000
vt 0.4469 0.6810 0.0000
vt 0.4482 0.6468 0.0000
vt 0.6378 0.6466 0.0000
vt 0.6391 0.6815 0.0000
vt 0.7734 0.6943 0.0000
vt 0.7724 0.6468 0.0000
vt 0.8517 0.6799 0.0000
vt 0.8670 0.6468 0.0000
vt 0.7724 0.5025 0.0000
vt 0.8670 0.5026 0.0000
vt 0.8517 0.4695 0.0000
vt 0.2152 0.0300 0.0000
vt 0.2499 0.0352 0.0000
vt 0.2404 0.0424 0.0000
vt 0.2053 0.0371 0.0000
vt 0.2415 0.0557 0.0000
vt 0.2518 0.0617 0.0000
vt 0.2172 0.0702 0.0000
vt 0.1505 0.0564 0.0000
vt 0.1512 0.0334 0.0000
vt 0.1837 0.0305 0.0000
vt 0.1827 0.0600 0.0000
vt 0.1926 0.0373 0.0000
vt 0.1965 0.0431 0.0000
vt 0.2029 0.0515 0.0000
vt 0.8890 0.5026 0.0000
vt 0.8890 0.6468 0.0000
vt 0.9399 0.5026 0.0000
vt 0.9399 0.6468 0.0000
vt 0.9819 0.5026 0.0000
vt 0.9819 0.6468 0.0000
vt 0.2241 0.9903 0.0000
vt 0.1996 0.9902 0.0000
vt 0.2001 0.7221 0.0000
vt 0.2246 0.7222 0.0000
vt 0.2471 0.7222 0.0000
vt 0.2466 0.9903 0.0000
vt 0.2997 0.9904 0.0000
vt 0.3002 0.7223 0.0000
vt 0.2762 0.7223 0.0000
vt 0.2757 0.9904 0.0000
vt 0.1425 0.9695 0.0000
vt 0.1429 0.7426 0.0000
vt 0.1076 0.9095 0.0000
vt 0.1078 0.8025 0.0000
vt 0.8674 0.1721 0.0000
vt 0.8177 0.1857 0.0000
vt 0.8157 0.1513 0.0000
vt 0.8649 0.1331 0.0000
vt 0.8541 0.0858 0.0000
vt 0.8111 0.0931 0.0000
vt 0.8454 0.0655 0.0000
vt 0.8093 0.0701 0.0000
vt 0.1721 0.2013 0.0000
vt 0.1037 0.1887 0.0000
vt 0.1069 0.1600 0.0000
vt 0.1745 0.1704 0.0000
vt 0.1204 0.1169 0.0000
vt 0.1858 0.1141 0.0000
vt 0.7186 0.2235 0.0000
vt 0.6975 0.2354 0.0000
vt 0.6705 0.2355 0.0000
vt 0.7333 0.2039 0.0000
vt 0.6371 0.2045 0.0000
vt 0.6499 0.2237 0.0000
vt 0.6368 0.1716 0.0000
vt 0.3285 0.2046 0.0000
vt 0.7324 0.1699 0.0000
vt 0.6365 0.0846 0.0000
vt 0.3285 0.1687 0.0000
vt 0.7312 0.0820 0.0000
vt 0.7335 0.0554 0.0000
vt 0.6153 0.0174 0.0000
vt 0.4403 0.0190 0.0000
vt 0.3825 0.0893 0.0000
vt 0.3796 0.0591 0.0000
vt 0.3852 0.0936 0.0000
vt 0.3805 0.0937 0.0000
vt 0.3288 0.0913 0.0000
vt 0.2316 0.2049 0.0000
vt 0.2649 0.2360 0.0000
vt 0.2459 0.2243 0.0000
vt 0.3139 0.2236 0.0000
vt 0.2936 0.2359 0.0000
vt 0.0505 0.0431 0.0000
vt 0.0407 0.0363 0.0000
vt 0.0752 0.0296 0.0000
vt 0.0853 0.0362 0.0000
vt 0.0750 0.0698 0.0000
vt 0.0400 0.0629 0.0000
vt 0.0500 0.0565 0.0000
vt 0.1086 0.0304 0.0000
vt 0.1411 0.0336 0.0000
vt 0.1417 0.0566 0.0000
vt 0.1094 0.0599 0.0000
vt 0.0997 0.0372 0.0000
vt 0.0958 0.0430 0.0000
vt 0.0884 0.0505 0.0000
# 182 texture coords

o car
g car
usemtl 01___Default
s off
f 1/1/1 2/2/1 3/3/1 
f 4/4/2 5/5/2 6/6/2 
f 7/7/3 8/8/4 9/9/5 
f 9/9/5 10/10/6 7/7/3 
f 7/7/3 10/10/6 11/11/7 
f 11/11/7 12/12/8 7/7/3 
f 12/12/8 11/11/7 13/13/9 
f 13/13/9 14/14/10 12/12/8 
f 15/15/11 16/16/12 17/17/12 
f 17/17/12 18/18/11 15/15/11 
f 15/15/11 18/18/11 19/19/13 
f 19/19/13 20/20/13 15/15/11 
f 18/21/14 17/22/15 21/23/16 
f 21/23/16 22/24/17 18/21/14 
f 19/25/18 18/21/14 22/24/17 
f 22/24/17 23/26/19 19/25/18 
f 24/27/20 25/28/20 26/29/20 
f 24/27/20 26/29/20 27/30/21 
f 26/29/20 28/31/20 27/30/21 
f 26/29/20 29/32/20 28/31/20 
f 30/33/22 24/27/20 27/30/21 
f 31/34/23 24/27/20 30/33/22 
f 27/30/21 32/35/24 30/33/22 
f 32/35/24 27/30/21 8/8/25 
f 8/8/25 7/7/25 32/35/24 
f 33/36/26 30/33/22 32/35/24 
f 34/37/27 30/33/22 33/36/26 
f 30/33/22 34/37/27 31/34/23 
f 32/35/24 7/7/25 12/12/28 
f 12/12/28 35/38/29 32/35/24 
f 32/35/24 35/38/29 33/36/26 
f 35/38/29 12/12/28 14/14/30 
f 14/14/30 36/39/31 35/38/29 
f 33/36/26 35/38/29 36/39/31 
f 36/39/31 37/40/32 33/36/26 
f 33/36/26 37/40/32 38/41/33 
f 33/36/26 38/41/33 39/42/34 
f 38/41/33 40/43/35 39/42/34 
f 33/36/26 39/42/34 41/44/36 
f 33/36/26 41/44/36 34/37/27 
f 2/45/37 39/42/34 40/43/35 
f 34/37/27 41/44/36 2/45/37 
f 40/43/35 42/46/38 2/45/37 
f 2/45/37 42/46/38 34/37/27 
f 22/24/39 34/37/27 42/46/38 
f 42/46/38 23/26/40 22/24/39 
f 22/24/39 31/34/23 34/37/27 
f 22/24/39 43/47/41 31/34/23 
f 22/24/39 21/23/42 43/47/41 
f 43/47/41 44/48/20 31/34/23 
f 43/47/41 45/49/20 44/48/20 
f 44/48/20 46/50/20 31/34/23 
f 44/48/20 47/51/20 46/50/20 
f 48/52/43 27/53/43 28/54/44 
f 28/54/44 49/55/44 48/52/43 
f 50/56/45 49/55/44 28/54/44 
f 28/54/44 29/57/45 50/56/45 
f 50/56/45 29/57/45 26/58/46 
f 26/58/46 51/59/46 50/56/45 
f 25/60/47 24/61/48 52/62/48 
f 52/62/48 53/63/47 25/60/47 
f 25/60/47 53/63/47 51/59/49 
f 51/59/49 26/58/49 25/60/47 
f 31/64/46 54/65/46 52/62/46 
f 52/62/46 24/61/46 31/64/46 
f 55/66/50 9/67/50 8/68/51 
f 8/68/51 56/69/51 55/66/50 
f 48/52/52 56/69/51 8/68/51 
f 8/68/51 27/53/52 48/52/52 
f 57/70/53 23/71/54 42/72/55 
f 42/72/55 58/73/56 57/70/53 
f 42/72/55 40/74/57 58/73/56 
f 59/75/58 57/70/53 58/73/56 
f 40/74/57 38/76/59 58/73/56 
f 58/73/56 60/77/60 59/75/58 
f 38/76/59 61/78/61 58/73/56 
f 60/77/60 58/73/56 61/78/61 
f 62/79/62 61/78/61 38/76/59 
f 38/76/59 37/80/63 62/79/62 
f 62/79/62 37/80/63 36/81/64 
f 59/75/58 60/77/60 63/82/65 
f 63/82/65 64/83/66 59/75/58 
f 63/82/65 60/77/60 65/84/67 
f 60/77/60 66/85/68 65/84/67 
f 61/78/61 67/86/69 60/77/60 
f 60/77/60 67/86/69 66/85/68 
f 67/86/69 61/78/61 62/79/62 
f 66/85/68 67/86/69 68/87/70 
f 62/79/62 68/87/70 67/86/69 
f 68/87/70 69/88/71 66/85/68 
f 70/89/72 69/88/71 68/87/70 
f 68/87/70 71/90/73 70/89/72 
f 71/90/73 68/87/70 62/79/62 
f 72/91/74 70/89/72 71/90/73 
f 71/90/73 73/92/75 72/91/74 
f 62/79/62 74/93/76 71/90/73 
f 73/92/75 71/90/73 74/93/76 
f 36/81/64 74/93/76 62/79/62 
f 74/93/76 13/94/77 73/92/75 
f 74/93/76 36/81/64 14/95/78 
f 14/95/78 13/94/77 74/93/76 
f 19/19/79 23/71/80 57/70/81 
f 20/20/82 19/19/79 57/70/81 
f 57/70/81 59/75/83 20/20/82 
f 20/20/82 59/75/83 64/83/84 
f 75/96/85 76/97/86 77/98/87 
f 77/98/87 3/3/88 75/96/85 
f 75/96/85 3/3/88 2/2/89 
f 2/2/89 41/99/90 75/96/85 
f 1/1/91 78/100/92 79/101/93 
f 79/101/93 80/102/94 1/1/91 
f 79/103/95 76/104/96 75/105/97 
f 75/105/97 80/106/98 79/103/95 
f 80/106/98 75/105/97 41/107/99 
f 41/107/99 39/108/100 80/106/98 
f 77/98/101 78/100/102 1/1/103 
f 1/1/103 3/3/104 77/98/101 
f 39/109/105 2/2/106 1/1/107 
f 1/1/107 80/102/108 39/109/105 
f 73/92/109 13/94/9 11/110/7 
f 11/110/7 81/111/110 73/92/109 
f 81/111/110 11/110/7 10/112/6 
f 10/112/6 82/113/111 81/111/110 
f 82/113/111 10/112/6 9/114/5 
f 9/114/5 55/115/112 82/113/111 
f 79/101/113 78/100/114 77/98/115 
f 77/98/115 76/97/116 79/101/113 
f 45/116/117 43/117/118 83/118/118 
f 83/118/118 84/119/117 45/116/117 
f 45/116/117 84/119/117 85/120/119 
f 85/120/119 44/121/119 45/116/117 
f 54/65/120 31/64/120 46/122/121 
f 46/122/121 86/123/121 54/65/120 
f 87/124/122 86/123/121 46/122/121 
f 46/122/121 47/125/122 87/124/122 
f 83/118/46 43/117/46 21/126/123 
f 21/126/123 88/127/123 83/118/46 
f 88/127/123 21/126/123 17/128/124 
f 17/128/124 16/129/124 88/127/123 
f 55/130/112 56/131/125 89/132/126 
f 89/132/126 82/133/111 55/130/112 
f 81/134/110 82/133/111 89/132/126 
f 89/132/126 90/135/127 81/134/110 
f 73/136/109 81/134/110 90/135/127 
f 90/135/127 72/137/128 73/136/109 
f 88/138/129 16/139/130 15/140/131 
f 15/140/131 91/141/132 88/138/129 
f 91/141/132 15/140/131 20/142/133 
f 20/142/133 64/143/134 91/141/132 
f 49/144/135 50/145/135 51/146/135 
f 48/147/136 49/144/135 51/146/135 
f 52/148/135 48/147/136 51/146/135 
f 52/148/135 51/146/135 53/149/135 
f 48/147/136 52/148/135 92/150/137 
f 92/150/137 52/148/135 54/151/138 
f 92/150/137 93/152/139 48/147/136 
f 56/131/140 48/147/136 93/152/139 
f 93/152/139 89/132/140 56/131/140 
f 93/152/139 92/150/137 94/153/141 
f 94/153/141 92/150/137 95/154/142 
f 54/151/138 95/154/142 92/150/137 
f 90/135/143 89/132/140 93/152/139 
f 93/152/139 96/155/144 90/135/143 
f 94/153/141 96/155/144 93/152/139 
f 72/137/145 90/135/143 96/155/144 
f 96/155/144 70/156/146 72/137/145 
f 70/156/146 96/155/144 94/153/141 
f 94/153/141 69/157/147 70/156/146 
f 94/153/141 66/158/148 69/157/147 
f 94/153/141 97/159/149 66/158/148 
f 97/159/149 65/160/150 66/158/148 
f 94/153/141 98/161/151 97/159/149 
f 95/154/142 98/161/151 94/153/141 
f 65/160/150 97/159/149 6/162/152 
f 6/162/152 98/161/151 95/154/142 
f 6/162/152 63/163/153 65/160/150 
f 95/154/142 63/163/153 6/162/152 
f 63/163/153 95/154/142 91/141/154 
f 91/141/154 64/143/155 63/163/153 
f 91/141/154 95/154/142 54/151/138 
f 91/141/154 54/151/138 83/164/156 
f 91/141/154 83/164/156 88/138/157 
f 83/164/156 54/151/138 85/165/135 
f 83/164/156 85/165/135 84/166/135 
f 54/151/138 86/167/135 85/165/135 
f 86/167/135 87/168/135 85/165/135 
f 99/169/158 100/170/159 101/171/160 
f 101/171/160 5/5/161 99/169/158 
f 6/6/162 5/5/161 101/171/160 
f 101/171/160 98/172/163 6/6/162 
f 4/4/164 102/173/165 103/174/166 
f 103/174/166 104/175/167 4/4/164 
f 101/176/168 100/177/169 103/178/170 
f 103/178/170 102/179/171 101/176/168 
f 98/180/172 101/176/168 102/179/171 
f 102/179/171 97/181/173 98/180/172 
f 99/169/174 5/5/175 4/4/176 
f 4/4/176 104/175/177 99/169/174 
f 97/182/178 102/173/179 4/4/180 
f 4/4/180 6/6/181 97/182/178 
f 103/174/182 100/170/183 99/169/184 
f 99/169/184 104/175/185 103/174/182 
f 47/125/46 44/121/46 85/120/46 
f 85/120/46 87/124/46 47/125/46 
# 0 polygons - 204 triangles

